<?xml version="1.0" ?><svg height="48" viewBox="0 0 48 48" width="48" xmlns="http://www.w3.org/2000/svg"><defs><style>.cls-1{fill:#a4b0c0;}.cls-2{fill:#d0d7df;}.cls-3{fill:#35dc86;}.cls-4{fill:#fed049;}.cls-5{fill:#f1f2f2;}.cls-6{fill:#474c54;}</style></defs><title/><g data-name="20-Business Planning" id="_20-Business_Planning"><path class="cls-1" d="M47,34,34,47V38a4,4,0,0,1,4-4h9Z"/><path class="cls-2" d="M47,13V34H38a4,4,0,0,0-4,4v9H5a4,4,0,0,1-4-4V13S1,9,5,9H43A4,4,0,0,1,47,13Z"/><rect class="cls-1" height="8" rx="1" ry="1" width="14" x="17" y="1"/><rect class="cls-3" height="8" rx="1" ry="1" width="14" x="17" y="25"/><rect class="cls-4" height="8" rx="1" ry="1" width="14" x="17" y="13"/><rect class="cls-5" height="4" rx="1" ry="1" width="14" x="6" y="38"/><path class="cls-6" d="M47,12a1,1,0,0,0-1,1V33.586l-11,11V38a3,3,0,0,1,3-3h3a1,1,0,0,0,0-2H38a5.006,5.006,0,0,0-5,5v8H5a3,3,0,0,1-3-3V13.005A2.853,2.853,0,0,1,5,10h8a1,1,0,0,0,0-2H5a4.821,4.821,0,0,0-5,5V43a5.006,5.006,0,0,0,5,5H34a.988.988,0,0,0,.385-.078,1,1,0,0,0,.323-.216l13-13A1,1,0,0,0,48,34V13A1,1,0,0,0,47,12Z"/><path class="cls-6" d="M38.707,13.293a1,1,0,0,0-1.414,0l-3,3a1,1,0,0,0,0,1.416l3,3a1,1,0,0,0,1.414-1.414L37.414,18H41a2.916,2.916,0,0,0,3-3V7a2.916,2.916,0,0,0-3-3H35a1,1,0,0,0,0,2h5.988A.919.919,0,0,1,42,7v7.988A.918.918,0,0,1,41,16H37.414l1.293-1.293A1,1,0,0,0,38.707,13.293Z"/><path class="cls-6" d="M7,18h6a1,1,0,0,0,0-2H7a2.916,2.916,0,0,0-3,3v8a2.916,2.916,0,0,0,3,3h3.586L9.293,31.293a1,1,0,1,0,1.414,1.414l3-3a1,1,0,0,0,0-1.416l-3-3a1,1,0,0,0-1.414,1.414L10.586,28H7a.915.915,0,0,1-1-1V19A.915.915,0,0,1,7,18Z"/><path class="cls-6" d="M24,41a1,1,0,0,0,0,2h1a1,1,0,0,0,0-2Z"/><path class="cls-6" d="M29,41H28a1,1,0,0,0,0,2h1a1,1,0,0,0,0-2Z"/><path class="cls-6" d="M18,10H30a2,2,0,0,0,2-2V2a2,2,0,0,0-2-2H18a2,2,0,0,0-2,2V8A2,2,0,0,0,18,10Zm0-8H30V8L18,8Z"/><path class="cls-6" d="M18,22H30a2,2,0,0,0,2-2V14a2,2,0,0,0-2-2H18a2,2,0,0,0-2,2v6A2,2,0,0,0,18,22Zm0-8H30v6L18,20Z"/><path class="cls-6" d="M18,34H30a2,2,0,0,0,2-2V26a2,2,0,0,0-2-2H18a2,2,0,0,0-2,2v6A2,2,0,0,0,18,34Zm0-8H30v6L18,32Z"/><path class="cls-6" d="M7,43H19a2,2,0,0,0,2-2V39a2,2,0,0,0-2-2H7a2,2,0,0,0-2,2v2A2,2,0,0,0,7,43Zm0-4H19v2L7,41Z"/><path class="cls-6" d="M29,37H24a1,1,0,0,0,0,2h5a1,1,0,0,0,0-2Z"/></g></svg>